ISO-10303-21;
HEADER;
FILE_DESCRIPTION(('STEP AP242'),
    '1');
FILE_NAME('Стенка67',
    '',
    ('UNSPECIFIED'),
    ('UNSPECIFIED'),
    'C3D Converter',
    'C3D Toolkit',
    '');
FILE_SCHEMA(('AP242_MANAGED_MODEL_BASED_3D_ENGINEERING_MIM_LF { 1 0 10303 442 1 1 4 }'));
ENDSEC;

DATA;
#1=PRODUCT_DEFINITION('','UNSPECIFIED',#28,#31);
#2=SHAPE_DEFINITION_REPRESENTATION(#26,#3);
#3=SHAPE_REPRESENTATION('NONE',(#4),#8);
#4=AXIS2_PLACEMENT_3D('',#5,#6,#7);
#5=CARTESIAN_POINT('',(0.,0.,0.));
#6=DIRECTION('',(0.,0.,1.));
#7=DIRECTION('',(1.,0.,0.));
#8=(GEOMETRIC_REPRESENTATION_CONTEXT(3)GLOBAL_UNCERTAINTY_ASSIGNED_CONTEXT((#10))
GLOBAL_UNIT_ASSIGNED_CONTEXT((#9,#11,#12))REPRESENTATION_CONTEXT('NONE','NONE'));
#9=(LENGTH_UNIT()NAMED_UNIT(*)SI_UNIT(.MILLI.,.METRE.));
#10=UNCERTAINTY_MEASURE_WITH_UNIT(LENGTH_MEASURE(1.E-5),#9,'NONE','NONE');
#11=(NAMED_UNIT(*)PLANE_ANGLE_UNIT()SI_UNIT($,.RADIAN.));
#12=(NAMED_UNIT(*)SI_UNIT($,.STERADIAN.)SOLID_ANGLE_UNIT());
#13=MANIFOLD_SOLID_BREP('',#14);
#14=CLOSED_SHELL('',(#53,#54,#55,#56,#57,#58,#59,#60,#61,#62,#63,#64));
#15=COLOUR_RGB('',1.,0.4,0.4);
#16=FILL_AREA_STYLE_COLOUR('',#15);
#17=FILL_AREA_STYLE($,(#16));
#18=SURFACE_STYLE_FILL_AREA(#17);
#19=SURFACE_SIDE_STYLE('',(#18));
#20=SURFACE_STYLE_USAGE(.BOTH.,#19);
#21=PRESENTATION_STYLE_ASSIGNMENT((#20));
#22=MECHANICAL_DESIGN_GEOMETRIC_PRESENTATION_REPRESENTATION('NONE',(#23),#8);
#23=STYLED_ITEM('',(#21),#13);
#24=ADVANCED_BREP_SHAPE_REPRESENTATION('NONE',(#13),#8);
#25=SHAPE_REPRESENTATION_RELATIONSHIP('','',#3,#24);
#26=PRODUCT_DEFINITION_SHAPE('NONE','NONE',#1);
#27=MECHANICAL_CONTEXT('NONE',#32,'mechanical');
#28=PRODUCT_DEFINITION_FORMATION_WITH_SPECIFIED_SOURCE('ANY','UNSPECIFIED',#29,.NOT_KNOWN.);
#29=PRODUCT('','\X2\0414043504420430043B044C\X0\','NONE',(#27));
#30=PRODUCT_RELATED_PRODUCT_CATEGORY('detail','',(#29));
#31=DESIGN_CONTEXT('detailed design',#32,'design');
#32=APPLICATION_CONTEXT('configuration controlled 3d designs of mechanical parts and assemblies');
#33=APPLICATION_PROTOCOL_DEFINITION('international standard','config_control_design',
1994,#32);
#34=CC_DESIGN_DATE_AND_TIME_ASSIGNMENT(#35,#39,(#1));
#35=DATE_AND_TIME(#36,#37);
#36=CALENDAR_DATE(0,1,1);
#37=LOCAL_TIME(0,0,0.,#38);
#38=COORDINATED_UNIVERSAL_TIME_OFFSET(0,0,.AHEAD.);
#39=DATE_TIME_ROLE('creation_date');
#40=CC_DESIGN_APPROVAL(#41,(#1));
#41=APPROVAL(#42,'UNSPECIFIED');
#42=APPROVAL_STATUS('not_yet_approved');
#43=APPROVAL_DATE_TIME(#44,#41);
#44=DATE_AND_TIME(#45,#46);
#45=CALENDAR_DATE(0,1,1);
#46=LOCAL_TIME(0,0,0.,#47);
#47=COORDINATED_UNIVERSAL_TIME_OFFSET(0,0,.AHEAD.);
#48=PERSON('UNSPECIFIED','Kare0','UNSPECIFIED',('UNSPECIFIED'),('UNSPECIFIED'),(
'UNSPECIFIED'));
#49=ORGANIZATION('UNSPECIFIED','UNSPECIFIED','UNSPECIFIED');
#50=PERSON_AND_ORGANIZATION(#48,#49);
#51=PERSON_AND_ORGANIZATION_ROLE('creator');
#52=CC_DESIGN_PERSON_AND_ORGANIZATION_ASSIGNMENT(#50,#51,(#28,#1));
#53=ADVANCED_FACE('',(#65,#67,#69,#71),#73,.T.);
#54=ADVANCED_FACE('',(#78,#80,#82,#84),#86,.F.);
#55=ADVANCED_FACE('',(#91),#93,.F.);
#56=ADVANCED_FACE('',(#98),#100,.F.);
#57=ADVANCED_FACE('',(#105),#107,.F.);
#58=ADVANCED_FACE('',(#112),#114,.F.);
#59=ADVANCED_FACE('',(#119),#121,.T.);
#60=ADVANCED_FACE('',(#126),#128,.T.);
#61=ADVANCED_FACE('',(#133),#135,.T.);
#62=ADVANCED_FACE('',(#140),#142,.T.);
#63=ADVANCED_FACE('',(#147,#149),#151,.F.);
#64=ADVANCED_FACE('',(#156,#158),#160,.F.);
#65=FACE_BOUND('',#66,.T.);
#66=EDGE_LOOP('',(#165,#166,#167,#168));
#67=FACE_BOUND('',#68,.T.);
#68=EDGE_LOOP('',(#169,#170,#171,#172));
#69=FACE_BOUND('',#70,.T.);
#70=EDGE_LOOP('',(#173));
#71=FACE_BOUND('',#72,.T.);
#72=EDGE_LOOP('',(#174));
#73=PLANE('',#74);
#74=AXIS2_PLACEMENT_3D('',#75,#76,#77);
#75=CARTESIAN_POINT('',(1.5,0.,-2.75545529808154E-16));
#76=DIRECTION('',(1.,0.,-1.83697019872103E-16));
#77=DIRECTION('',(-1.83697019872103E-16,1.22464679914735E-16,-1.));
#78=FACE_BOUND('',#79,.T.);
#79=EDGE_LOOP('',(#175,#176,#177,#178));
#80=FACE_BOUND('',#81,.T.);
#81=EDGE_LOOP('',(#179,#180,#181,#182));
#82=FACE_BOUND('',#83,.T.);
#83=EDGE_LOOP('',(#183));
#84=FACE_BOUND('',#85,.T.);
#85=EDGE_LOOP('',(#184));
#86=PLANE('',#87);
#87=AXIS2_PLACEMENT_3D('',#88,#89,#90);
#88=CARTESIAN_POINT('',(0.,0.,0.));
#89=DIRECTION('',(1.,0.,-1.83697019872103E-16));
#90=DIRECTION('',(-1.83697019872103E-16,1.22464679914735E-16,-1.));
#91=FACE_BOUND('',#92,.T.);
#92=EDGE_LOOP('',(#185,#186,#187,#188));
#93=PLANE('',#94);
#94=AXIS2_PLACEMENT_3D('',#95,#96,#97);
#95=CARTESIAN_POINT('',(-8.5,-35.75,6.00000000000001));
#96=DIRECTION('',(0.,-1.,0.));
#97=DIRECTION('',(-2.96059473233375E-16,0.,-1.));
#98=FACE_BOUND('',#99,.T.);
#99=EDGE_LOOP('',(#189,#190,#191,#192));
#100=PLANE('',#101);
#101=AXIS2_PLACEMENT_3D('',#102,#103,#104);
#102=CARTESIAN_POINT('',(-8.5,-27.25,6.00000000000001));
#103=DIRECTION('',(1.77635683940025E-16,1.0449157878825E-16,1.));
#104=DIRECTION('',(0.,-1.,1.0449157878825E-16));
#105=FACE_BOUND('',#106,.T.);
#106=EDGE_LOOP('',(#193,#194,#195,#196));
#107=PLANE('',#108);
#108=AXIS2_PLACEMENT_3D('',#109,#110,#111);
#109=CARTESIAN_POINT('',(-8.5,-27.25,-5.99999999999999));
#110=DIRECTION('',(0.,1.,0.));
#111=DIRECTION('',(2.96059473233375E-16,0.,1.));
#112=FACE_BOUND('',#113,.T.);
#113=EDGE_LOOP('',(#197,#198,#199,#200));
#114=PLANE('',#115);
#115=AXIS2_PLACEMENT_3D('',#116,#117,#118);
#116=CARTESIAN_POINT('',(-8.5,-35.75,-5.99999999999999));
#117=DIRECTION('',(-1.77635683940025E-16,-1.0449157878825E-16,-1.));
#118=DIRECTION('',(0.,1.,-1.0449157878825E-16));
#119=FACE_BOUND('',#120,.T.);
#120=EDGE_LOOP('',(#201,#202,#203,#204));
#121=PLANE('',#122);
#122=AXIS2_PLACEMENT_3D('',#123,#124,#125);
#123=CARTESIAN_POINT('',(-7.89897185450042E-15,46.5,-43.));
#124=DIRECTION('',(0.,1.,1.65242496688395E-16));
#125=DIRECTION('',(1.83697019872103E-16,-1.65242496688395E-16,1.));
#126=FACE_BOUND('',#127,.T.);
#127=EDGE_LOOP('',(#205,#206,#207,#208));
#128=PLANE('',#129);
#129=AXIS2_PLACEMENT_3D('',#130,#131,#132);
#130=CARTESIAN_POINT('',(7.89897185450043E-15,46.5,43.));
#131=DIRECTION('',(0.,-1.52804889410774E-16,1.));
#132=DIRECTION('',(-3.39295012998285E-32,-1.,-1.52804889410774E-16));
#133=FACE_BOUND('',#134,.T.);
#134=EDGE_LOOP('',(#209,#210,#211,#212));
#135=PLANE('',#136);
#136=AXIS2_PLACEMENT_3D('',#137,#138,#139);
#137=CARTESIAN_POINT('',(7.89897185450042E-15,-46.5,43.));
#138=DIRECTION('',(0.,-1.,-1.65242496688395E-16));
#139=DIRECTION('',(-1.83697019872103E-16,1.65242496688395E-16,-1.));
#140=FACE_BOUND('',#141,.T.);
#141=EDGE_LOOP('',(#213,#214,#215,#216));
#142=PLANE('',#143);
#143=AXIS2_PLACEMENT_3D('',#144,#145,#146);
#144=CARTESIAN_POINT('',(-7.89897185450043E-15,-46.5,-43.));
#145=DIRECTION('',(0.,1.52804889410774E-16,-1.));
#146=DIRECTION('',(3.39295012998285E-32,1.,1.52804889410774E-16));
#147=FACE_OUTER_BOUND('',#148,.T.);
#148=EDGE_LOOP('',(#217));
#149=FACE_OUTER_BOUND('',#150,.T.);
#150=EDGE_LOOP('',(#218));
#151=CYLINDRICAL_SURFACE('',#152,1.);
#152=AXIS2_PLACEMENT_3D('',#153,#154,#155);
#153=CARTESIAN_POINT('',(-6.70494122533176E-15,44.,-36.5));
#154=DIRECTION('',(1.,0.,-1.83697019872103E-16));
#155=DIRECTION('',(-1.83697019872103E-16,1.22464679914735E-16,-1.));
#156=FACE_OUTER_BOUND('',#157,.T.);
#157=EDGE_LOOP('',(#219));
#158=FACE_OUTER_BOUND('',#159,.T.);
#159=EDGE_LOOP('',(#220));
#160=CYLINDRICAL_SURFACE('',#161,1.);
#161=AXIS2_PLACEMENT_3D('',#162,#163,#164);
#162=CARTESIAN_POINT('',(6.70494122533176E-15,44.,36.5));
#163=DIRECTION('',(1.,0.,-1.83697019872103E-16));
#164=DIRECTION('',(-1.83697019872103E-16,1.22464679914735E-16,-1.));
#165=ORIENTED_EDGE('',*,*,#221,.T.);
#166=ORIENTED_EDGE('',*,*,#222,.T.);
#167=ORIENTED_EDGE('',*,*,#223,.T.);
#168=ORIENTED_EDGE('',*,*,#224,.T.);
#169=ORIENTED_EDGE('',*,*,#225,.T.);
#170=ORIENTED_EDGE('',*,*,#226,.T.);
#171=ORIENTED_EDGE('',*,*,#227,.T.);
#172=ORIENTED_EDGE('',*,*,#228,.T.);
#173=ORIENTED_EDGE('',*,*,#229,.T.);
#174=ORIENTED_EDGE('',*,*,#230,.T.);
#175=ORIENTED_EDGE('',*,*,#231,.F.);
#176=ORIENTED_EDGE('',*,*,#232,.F.);
#177=ORIENTED_EDGE('',*,*,#233,.F.);
#178=ORIENTED_EDGE('',*,*,#234,.F.);
#179=ORIENTED_EDGE('',*,*,#235,.T.);
#180=ORIENTED_EDGE('',*,*,#236,.T.);
#181=ORIENTED_EDGE('',*,*,#237,.T.);
#182=ORIENTED_EDGE('',*,*,#238,.T.);
#183=ORIENTED_EDGE('',*,*,#239,.T.);
#184=ORIENTED_EDGE('',*,*,#240,.T.);
#185=ORIENTED_EDGE('',*,*,#238,.F.);
#186=ORIENTED_EDGE('',*,*,#241,.T.);
#187=ORIENTED_EDGE('',*,*,#226,.F.);
#188=ORIENTED_EDGE('',*,*,#242,.F.);
#189=ORIENTED_EDGE('',*,*,#237,.F.);
#190=ORIENTED_EDGE('',*,*,#243,.T.);
#191=ORIENTED_EDGE('',*,*,#227,.F.);
#192=ORIENTED_EDGE('',*,*,#241,.F.);
#193=ORIENTED_EDGE('',*,*,#236,.F.);
#194=ORIENTED_EDGE('',*,*,#244,.T.);
#195=ORIENTED_EDGE('',*,*,#228,.F.);
#196=ORIENTED_EDGE('',*,*,#243,.F.);
#197=ORIENTED_EDGE('',*,*,#235,.F.);
#198=ORIENTED_EDGE('',*,*,#242,.T.);
#199=ORIENTED_EDGE('',*,*,#225,.F.);
#200=ORIENTED_EDGE('',*,*,#244,.F.);
#201=ORIENTED_EDGE('',*,*,#234,.T.);
#202=ORIENTED_EDGE('',*,*,#245,.T.);
#203=ORIENTED_EDGE('',*,*,#221,.F.);
#204=ORIENTED_EDGE('',*,*,#246,.F.);
#205=ORIENTED_EDGE('',*,*,#233,.T.);
#206=ORIENTED_EDGE('',*,*,#247,.T.);
#207=ORIENTED_EDGE('',*,*,#222,.F.);
#208=ORIENTED_EDGE('',*,*,#245,.F.);
#209=ORIENTED_EDGE('',*,*,#232,.T.);
#210=ORIENTED_EDGE('',*,*,#248,.T.);
#211=ORIENTED_EDGE('',*,*,#223,.F.);
#212=ORIENTED_EDGE('',*,*,#247,.F.);
#213=ORIENTED_EDGE('',*,*,#231,.T.);
#214=ORIENTED_EDGE('',*,*,#246,.T.);
#215=ORIENTED_EDGE('',*,*,#224,.F.);
#216=ORIENTED_EDGE('',*,*,#248,.F.);
#217=ORIENTED_EDGE('',*,*,#229,.F.);
#218=ORIENTED_EDGE('',*,*,#239,.F.);
#219=ORIENTED_EDGE('',*,*,#230,.F.);
#220=ORIENTED_EDGE('',*,*,#240,.F.);
#221=EDGE_CURVE('',#249,#250,#251,.T.);
#222=EDGE_CURVE('',#250,#252,#253,.T.);
#223=EDGE_CURVE('',#252,#254,#255,.T.);
#224=EDGE_CURVE('',#254,#249,#256,.T.);
#225=EDGE_CURVE('',#257,#258,#259,.F.);
#226=EDGE_CURVE('',#258,#260,#261,.F.);
#227=EDGE_CURVE('',#260,#262,#263,.F.);
#228=EDGE_CURVE('',#262,#257,#264,.F.);
#229=EDGE_CURVE('',#265,#265,#266,.F.);
#230=EDGE_CURVE('',#267,#267,#268,.F.);
#231=EDGE_CURVE('',#269,#270,#271,.T.);
#232=EDGE_CURVE('',#272,#269,#273,.T.);
#233=EDGE_CURVE('',#274,#272,#275,.T.);
#234=EDGE_CURVE('',#270,#274,#276,.T.);
#235=EDGE_CURVE('',#277,#278,#279,.T.);
#236=EDGE_CURVE('',#278,#280,#281,.T.);
#237=EDGE_CURVE('',#280,#282,#283,.T.);
#238=EDGE_CURVE('',#282,#277,#284,.T.);
#239=EDGE_CURVE('',#285,#285,#286,.T.);
#240=EDGE_CURVE('',#287,#287,#288,.T.);
#241=EDGE_CURVE('',#282,#260,#289,.T.);
#242=EDGE_CURVE('',#277,#258,#290,.T.);
#243=EDGE_CURVE('',#280,#262,#291,.T.);
#244=EDGE_CURVE('',#278,#257,#292,.T.);
#245=EDGE_CURVE('',#274,#250,#293,.T.);
#246=EDGE_CURVE('',#270,#249,#294,.T.);
#247=EDGE_CURVE('',#272,#252,#295,.T.);
#248=EDGE_CURVE('',#269,#254,#296,.T.);
#249=VERTEX_POINT('',#297);
#250=VERTEX_POINT('',#298);
#251=LINE('',#299,#300);
#252=VERTEX_POINT('',#302);
#253=LINE('',#303,#304);
#254=VERTEX_POINT('',#306);
#255=LINE('',#307,#308);
#256=LINE('',#310,#311);
#257=VERTEX_POINT('',#313);
#258=VERTEX_POINT('',#314);
#259=LINE('',#315,#316);
#260=VERTEX_POINT('',#318);
#261=LINE('',#319,#320);
#262=VERTEX_POINT('',#322);
#263=LINE('',#323,#324);
#264=LINE('',#326,#327);
#265=VERTEX_POINT('',#329);
#266=CIRCLE('',#330,1.);
#267=VERTEX_POINT('',#334);
#268=CIRCLE('',#335,1.);
#269=VERTEX_POINT('',#339);
#270=VERTEX_POINT('',#340);
#271=LINE('',#341,#342);
#272=VERTEX_POINT('',#344);
#273=LINE('',#345,#346);
#274=VERTEX_POINT('',#348);
#275=LINE('',#349,#350);
#276=LINE('',#352,#353);
#277=VERTEX_POINT('',#355);
#278=VERTEX_POINT('',#356);
#279=LINE('',#357,#358);
#280=VERTEX_POINT('',#360);
#281=LINE('',#361,#362);
#282=VERTEX_POINT('',#364);
#283=LINE('',#365,#366);
#284=LINE('',#368,#369);
#285=VERTEX_POINT('',#371);
#286=CIRCLE('',#372,1.);
#287=VERTEX_POINT('',#376);
#288=CIRCLE('',#377,1.);
#289=LINE('',#381,#382);
#290=LINE('',#384,#385);
#291=LINE('',#387,#388);
#292=LINE('',#390,#391);
#293=LINE('',#393,#394);
#294=LINE('',#396,#397);
#295=LINE('',#399,#400);
#296=LINE('',#402,#403);
#297=CARTESIAN_POINT('',(1.49999999999999,46.5,-43.));
#298=CARTESIAN_POINT('',(1.50000000000001,46.5,43.));
#299=CARTESIAN_POINT('',(1.49999999999999,46.5,-43.));
#300=VECTOR('',#301,1.);
#301=DIRECTION('',(1.85897808774445E-16,-1.65242496688395E-16,1.));
#302=CARTESIAN_POINT('',(1.50000000000001,-46.5,43.));
#303=CARTESIAN_POINT('',(1.50000000000001,46.5,43.));
#304=VECTOR('',#305,1.);
#305=DIRECTION('',(0.,-1.,-1.52804889410774E-16));
#306=CARTESIAN_POINT('',(1.49999999999999,-46.5,-43.));
#307=CARTESIAN_POINT('',(1.50000000000001,-46.5,43.));
#308=VECTOR('',#309,1.);
#309=DIRECTION('',(-1.85897808774445E-16,1.65242496688395E-16,-1.));
#310=CARTESIAN_POINT('',(1.49999999999999,-46.5,-43.));
#311=VECTOR('',#312,1.);
#312=DIRECTION('',(0.,1.,1.52804889410774E-16));
#313=CARTESIAN_POINT('',(1.5,-27.25,-6.));
#314=CARTESIAN_POINT('',(1.5,-35.75,-6.));
#315=CARTESIAN_POINT('',(1.5,-35.75,-6.));
#316=VECTOR('',#317,1.);
#317=DIRECTION('',(0.,1.,-1.0449157878825E-16));
#318=CARTESIAN_POINT('',(1.5,-35.75,6.));
#319=CARTESIAN_POINT('',(1.5,-35.75,6.));
#320=VECTOR('',#321,1.);
#321=DIRECTION('',(-2.22044604925031E-16,0.,-1.));
#322=CARTESIAN_POINT('',(1.5,-27.25,6.));
#323=CARTESIAN_POINT('',(1.5,-27.25,6.));
#324=VECTOR('',#325,1.);
#325=DIRECTION('',(0.,-1.,1.0449157878825E-16));
#326=CARTESIAN_POINT('',(1.5,-27.25,-6.));
#327=VECTOR('',#328,1.);
#328=DIRECTION('',(2.22044604925031E-16,0.,1.));
#329=CARTESIAN_POINT('',(1.49999999999999,44.,-37.5));
#330=AXIS2_PLACEMENT_3D('',#331,#332,#333);
#331=CARTESIAN_POINT('',(1.49999999999999,44.,-36.5));
#332=DIRECTION('',(1.,0.,-1.83697019872103E-16));
#333=DIRECTION('',(-1.83697019872103E-16,1.22464679914735E-16,-1.));
#334=CARTESIAN_POINT('',(1.50000000000001,44.,35.5));
#335=AXIS2_PLACEMENT_3D('',#336,#337,#338);
#336=CARTESIAN_POINT('',(1.50000000000001,44.,36.5));
#337=DIRECTION('',(1.,0.,-1.83697019872103E-16));
#338=DIRECTION('',(-1.83697019872103E-16,1.22464679914735E-16,-1.));
#339=CARTESIAN_POINT('',(-7.89897185450043E-15,-46.5,-43.));
#340=CARTESIAN_POINT('',(-7.89897185450042E-15,46.5,-43.));
#341=CARTESIAN_POINT('',(-7.89897185450043E-15,-46.5,-43.));
#342=VECTOR('',#343,1.);
#343=DIRECTION('',(3.39295012998285E-32,1.,1.52804889410774E-16));
#344=CARTESIAN_POINT('',(7.89897185450042E-15,-46.5,43.));
#345=CARTESIAN_POINT('',(7.89897185450042E-15,-46.5,43.));
#346=VECTOR('',#347,1.);
#347=DIRECTION('',(-1.83697019872103E-16,1.65242496688395E-16,-1.));
#348=CARTESIAN_POINT('',(7.89897185450043E-15,46.5,43.));
#349=CARTESIAN_POINT('',(7.89897185450043E-15,46.5,43.));
#350=VECTOR('',#351,1.);
#351=DIRECTION('',(-3.39295012998285E-32,-1.,-1.52804889410774E-16));
#352=CARTESIAN_POINT('',(-7.89897185450042E-15,46.5,-43.));
#353=VECTOR('',#354,1.);
#354=DIRECTION('',(1.83697019872103E-16,-1.65242496688395E-16,1.));
#355=CARTESIAN_POINT('',(-1.77635683940025E-15,-35.75,-5.99999999999999));
#356=CARTESIAN_POINT('',(-1.77635683940025E-15,-27.25,-6.));
#357=CARTESIAN_POINT('',(-1.43926947931643E-15,-35.75,-6.));
#358=VECTOR('',#359,1.);
#359=DIRECTION('',(0.,1.,-1.0449157878825E-16));
#360=CARTESIAN_POINT('',(1.77635683940025E-15,-27.25,6.));
#361=CARTESIAN_POINT('',(-1.43926947931643E-15,-27.25,-6.));
#362=VECTOR('',#363,1.);
#363=DIRECTION('',(2.39878246552739E-16,0.,1.));
#364=CARTESIAN_POINT('',(1.77635683940025E-15,-35.75,6.));
#365=CARTESIAN_POINT('',(1.43926947931643E-15,-27.25,6.));
#366=VECTOR('',#367,1.);
#367=DIRECTION('',(2.32017913300298E-32,-1.,1.0449157878825E-16));
#368=CARTESIAN_POINT('',(1.43926947931643E-15,-35.75,6.));
#369=VECTOR('',#370,1.);
#370=DIRECTION('',(-2.39878246552739E-16,0.,-1.));
#371=CARTESIAN_POINT('',(-6.88863824520386E-15,44.,-37.5));
#372=AXIS2_PLACEMENT_3D('',#373,#374,#375);
#373=CARTESIAN_POINT('',(-6.70494122533176E-15,44.,-36.5));
#374=DIRECTION('',(1.,0.,-1.83697019872103E-16));
#375=DIRECTION('',(-1.83697019872103E-16,1.22464679914735E-16,-1.));
#376=CARTESIAN_POINT('',(6.52124420545965E-15,44.,35.5));
#377=AXIS2_PLACEMENT_3D('',#378,#379,#380);
#378=CARTESIAN_POINT('',(6.70494122533176E-15,44.,36.5));
#379=DIRECTION('',(1.,0.,-1.83697019872103E-16));
#380=DIRECTION('',(-1.83697019872103E-16,1.22464679914735E-16,-1.));
#381=CARTESIAN_POINT('',(1.77635683940025E-15,-35.75,6.));
#382=VECTOR('',#383,1.);
#383=DIRECTION('',(1.,0.,0.));
#384=CARTESIAN_POINT('',(-1.77635683940025E-15,-35.75,-5.99999999999999));
#385=VECTOR('',#386,1.);
#386=DIRECTION('',(1.,0.,0.));
#387=CARTESIAN_POINT('',(1.77635683940025E-15,-27.25,6.));
#388=VECTOR('',#389,1.);
#389=DIRECTION('',(1.,0.,0.));
#390=CARTESIAN_POINT('',(-1.77635683940025E-15,-27.25,-6.));
#391=VECTOR('',#392,1.);
#392=DIRECTION('',(1.,0.,0.));
#393=CARTESIAN_POINT('',(7.89897185450043E-15,46.5,43.));
#394=VECTOR('',#395,1.);
#395=DIRECTION('',(1.,0.,0.));
#396=CARTESIAN_POINT('',(-7.89897185450042E-15,46.5,-43.));
#397=VECTOR('',#398,1.);
#398=DIRECTION('',(1.,0.,0.));
#399=CARTESIAN_POINT('',(7.89897185450042E-15,-46.5,43.));
#400=VECTOR('',#401,1.);
#401=DIRECTION('',(1.,0.,0.));
#402=CARTESIAN_POINT('',(-7.89897185450043E-15,-46.5,-43.));
#403=VECTOR('',#404,1.);
#404=DIRECTION('',(1.,0.,0.));
ENDSEC;
END-ISO-10303-21;
